<svg xmlns="http://www.w3.org/2000/svg" width="67" height="63" viewBox="0 0 67 63" fill="none"><style>.a{fill:#4E97D0;}</style><path d="M57.9 53.1C57.7 54.3 55.9 52.9 56 52 57.3 39.4 50.7 25.5 35.9 24.7 36.2 31.6 34.3 38.6 30.6 43.9 27.7 48 22.4 51.2 17.1 49 12.9 47.2 10.7 42.7 10.2 38.6 8.9 27.6 22.9 22.6 33.7 22.7 33.6 20.7 33.2 18.7 32.6 16.8 28.5 3.8 11.8 0.1 1.9 9.6 1.2 10.3-0.2 8.6 0.5 7.8 8.9-0.3 23 0.4 30.5 9.5 33.5 13.2 35.2 17.9 35.8 22.8 37.1 22.8 38.4 23 39.7 23.3 53.8 26.5 59.1 40.9 57.9 53.1ZM15.9 30.3C12.6 32.8 11.5 36.3 12.3 40.2 13.1 44.2 15.9 48 20.7 47.6 27.5 47.1 31.1 39.8 32.6 34.5 33.5 31.4 33.9 28 33.9 24.7 27.8 24.8 20.6 26.7 15.9 30.3Z" class="a"/><path d="M56 59.5C53.5 56.8 50.7 54.2 47.8 51.8 46.7 51 47.4 49.5 48.7 50.5 51.4 52.7 53.9 55 56.3 57.6 58.6 53.9 61.3 50.6 64.6 47.7 65.4 47 66.8 48.8 66 49.5 62.6 52.5 59.8 56 57.4 59.8 57.1 60.5 56.3 59.8 56 59.5Z" class="a"/></svg> 