<svg xmlns="http://www.w3.org/2000/svg" width="80" height="66" viewBox="0 0 80 66" fill="none"><style>.a{fill:#4FA861;}</style><g clip-path="url(#clip0)"><path d="M46.9 33C48.2 31.2 49.4 29.2 50.3 27.1 51.3 28.5 52.2 29.9 53 31.3 57.9 40.1 61.6 50.3 61.4 60.4 61.4 61.5 62.9 60.7 62.9 59.9 63 49.4 59.3 38.8 54.1 29.7 53.2 28.2 52.2 26.7 51.1 25.2 52 22.9 52.7 20.4 53.1 18 53.9 13.5 54.2 8 50.5 4.7 49.8 4.2 48.7 5.6 49.3 6.2 53.2 9.6 52.2 16.1 51.1 20.8 50.8 21.9 50.5 23 50.2 24.1 45.9 19.1 40 15.2 33.5 17.4 26.3 19.8 22.6 28 26.1 34.8 28 38.5 31.9 41.1 36.2 40.7 40.8 40.2 44.4 36.6 46.9 33ZM27.9 34.3C25 29.7 26 23.4 30.6 20.3 37.6 15.5 44.7 20.2 49.4 26 48 29.6 45.9 33 43.2 35.6 38.5 40.2 31.4 40.3 27.9 34.3Z" class="a"/><path d="M62.4 63.6C63.9 61.4 65.5 59.4 67.3 57.6 67.9 56.9 67.5 55.6 66.6 56.5 64.9 58.3 63.4 60.1 62 62.1 60.4 60.4 58.6 58.8 56.7 57.4 56 56.9 55 58.3 55.6 58.9 57.6 60.4 59.6 62.1 61.4 64 61.7 64.2 62.3 63.9 62.4 63.6Z" class="a"/></g><defs><clipPath><rect x="79.2" y="6.5" width="59.4" height="74.3" transform="rotate(95.053 79.2256 6.54236)" fill="white"/></clipPath></defs></svg>